# xmcd CD database file
#
# Track frame offsets:
#	150
#	1294
#	33083
#	47729
#	81318
#	95835
#	116056
#	129903
#	147548
#	161100
#	175373
#	209721
#	308942
#	323952
#
# Disc length: 4334 seconds
#
# Revision: 0
# Processed by: cddbd v1.5.1PL2 Copyright (c) Steve Scherf et al.
# Submitted via: CDex 1.51
#
DISCID=cc10ec0e
DTITLE=Tepperwein - Gesundheit und Vitalitaet CD4
DYEAR=2004
DGENRE=New Age
TTITLE0=Jingle
TTITLE1=Der Jungbrunnen SEIN
TTITLE2=Altersverzoegerung positives Denken
TTITLE3=Richtige Gewohnheiten
TTITLE4=Lebensverkuerzer und Organfunktionsminderer loslassen
TTITLE5=Jungbrunnen - Kalorienreduzierung
TTITLE6=Ueberzeugungen praegen Alterungsprozess
TTITLE7=Loslassen und Absichtsvoll leben
TTITLE8=Bewusstsein auf Loesung richten
TTITLE9=3 Schritte des Schoepfungsprozesses
TTITLE10=Loslassen Uebergewicht und Rauchen
TTITLE11=Richiges Tun - optim Ernaehrung
TTITLE12=Gesunde Lebensvision
TTITLE13=Jingle
EXTD=YEAR: 2004
EXTT0=
EXTT1=
EXTT2=
EXTT3=
EXTT4=
EXTT5=
EXTT6=
EXTT7=
EXTT8=
EXTT9=
EXTT10=
EXTT11=
EXTT12=
EXTT13=
PLAYORDER=
